<?xml version="1.0" encoding="UTF-8" standalone="no"?>
<svg
   version="1.1"
   viewBox="0.00 0.00 1024.00 1024.00"
   id="svg150"
   sodipodi:docname="com.tenderowl.bureau.svg"
   inkscape:version="1.3 (0e150ed6c4, 2023-07-21)"
   xmlns:inkscape="http://www.inkscape.org/namespaces/inkscape"
   xmlns:sodipodi="http://sodipodi.sourceforge.net/DTD/sodipodi-0.dtd"
   xmlns="http://www.w3.org/2000/svg"
   xmlns:svg="http://www.w3.org/2000/svg">
  <defs
     id="defs150" />
  <sodipodi:namedview
     id="namedview150"
     pagecolor="#ffffff"
     bordercolor="#000000"
     borderopacity="0.25"
     inkscape:showpageshadow="2"
     inkscape:pageopacity="0.0"
     inkscape:pagecheckerboard="0"
     inkscape:deskcolor="#d1d1d1"
     inkscape:zoom="1.1376953"
     inkscape:cx="511.56052"
     inkscape:cy="512"
     inkscape:window-width="3440"
     inkscape:window-height="1371"
     inkscape:window-x="0"
     inkscape:window-y="0"
     inkscape:window-maximized="1"
     inkscape:current-layer="svg150" />
  <path
     fill="#232241"
     d="   M 600.75 104.52   C 631.96 112.21 662.10 122.66 691.22 137.08   C 790.43 186.19 868.19 270.70 905.80 375.26   C 935.94 459.06 938.42 548.53 914.91 634.49   C 895.02 707.17 854.07 774.29 800.63 825.88   C 722.71 901.12 618.74 944.97 510.74 946.67   Q 426.92 947.99 351.01 919.20   Q 323.62 908.81 292.45 891.23   Q 236.86 859.88 192.12 813.12   C 149.24 768.32 116.66 713.40 96.45 655.27   C 79.50 606.52 73.46 553.10 75.31 501.76   C 77.82 432.06 97.98 363.67 133.09 304.34   Q 157.07 263.81 192.39 226.39   C 249.53 165.84 323.11 124.27 403.99 104.93   C 448.31 94.33 493.09 91.60 538.51 94.81   Q 570.52 97.07 600.75 104.52   Z"
     id="path2" />
  <g
     stroke-width="2.00"
     fill="none"
     stroke-linecap="butt"
     id="g60">
    <path
       stroke="#10bbf8"
       vector-effect="non-scaling-stroke"
       d="   M 910.04 539.41   Q 905.62 538.66 900.20 539.95   C 894.95 541.19 893.16 534.75 888.31 534.09   C 881.64 533.18 877.84 544.93 875.49 549.50   C 868.70 562.74 863.22 572.48 855.85 580.70"
       id="path3" />
    <path
       stroke="#86e3fe"
       vector-effect="non-scaling-stroke"
       d="   M 780.18 504.54   Q 780.15 506.61 779.70 509.36   C 778.43 517.13 780.07 526.28 783.13 533.08   Q 790.60 549.62 807.73 555.63"
       id="path4" />
    <path
       stroke="#878ea3"
       vector-effect="non-scaling-stroke"
       d="   M 807.73 555.63   Q 811.25 557.63 812.84 557.64"
       id="path5" />
    <path
       stroke="#10bbf8"
       vector-effect="non-scaling-stroke"
       d="   M 136.69 546.18   Q 138.41 545.35 140.47 545.66   Q 140.99 545.74 141.36 545.37   C 145.89 540.88 147.84 534.45 145.64 528.42   Q 143.06 521.36 136.75 517.35"
       id="path6" />
    <path
       stroke="#10bbf8"
       vector-effect="non-scaling-stroke"
       d="   M 121.80 564.35   Q 118.87 561.95 116.23 559.64   C 111.24 555.27 106.84 548.43 103.18 544.07   Q 100.07 540.37 95.43 538.51"
       id="path7" />
    <path
       stroke="#fea9a2"
       vector-effect="non-scaling-stroke"
       d="   M 790.80 511.76   Q 790.37 522.91 794.58 532.15   Q 800.20 544.45 807.73 555.63"
       id="path8" />
    <path
       stroke="#febeb0"
       vector-effect="non-scaling-stroke"
       d="   M 677.01 246.34   C 675.83 247.60 674.63 248.69 673.68 250.18   C 664.66 264.45 646.10 269.54 630.36 265.63   Q 627.84 265.00 630.02 266.41   L 645.86 276.63"
       id="path9" />
    <path
       stroke="#fdd4c5"
       vector-effect="non-scaling-stroke"
       d="   M 645.86 276.63   L 644.48 280.96   A 2.71 2.71 0.0 0 1 640.56 282.49   Q 630.92 277.03 621.16 271.85   Q 614.24 268.19 593.46 260.37   C 557.43 246.81 517.19 240.62 478.75 244.75   Q 444.89 248.38 412.99 260.28   C 396.70 266.36 382.34 272.56 367.81 281.56   C 364.37 283.70 360.99 279.74 359.75 277.06"
       id="path10" />
    <path
       stroke="#febeb0"
       vector-effect="non-scaling-stroke"
       d="   M 359.75 277.06   C 364.28 272.71 369.24 270.15 374.22 267.27   Q 376.44 265.99 373.90 266.34   C 361.87 268.03 347.30 265.68 337.80 257.14   C 334.88 254.51 332.47 250.55 330.08 247.09   Q 329.78 246.65 330.18 246.30   Q 330.43 246.09 330.73 246.20"
       id="path11" />
    <path
       stroke="#fe9478"
       vector-effect="non-scaling-stroke"
       d="   M 645.86 276.63   Q 646.04 276.53 646.82 276.85"
       id="path12" />
    <path
       stroke="#fe7e69"
       vector-effect="non-scaling-stroke"
       d="   M 646.82 276.85   Q 654.98 282.12 662.11 288.48"
       id="path13" />
    <path
       stroke="#fe7e69"
       vector-effect="non-scaling-stroke"
       d="   M 699.71 362.90   Q 696.12 363.81 691.85 360.67   Q 691.46 360.38 691.01 360.57   Q 690.36 360.84 689.75 360.81"
       id="path14" />
    <path
       stroke="#fdd4c5"
       vector-effect="non-scaling-stroke"
       d="   M 689.75 360.81   C 684.70 328.63 666.03 305.64 637.26 291.72   C 604.05 275.65 565.49 286.12 540.43 311.95   C 526.28 326.53 519.67 342.85 516.81 362.86"
       id="path15" />
    <path
       stroke="#fe9478"
       vector-effect="non-scaling-stroke"
       d="   M 516.81 362.86   Q 513.41 363.74 511.24 363.50   Q 501.16 362.37 491.03 361.52   Q 490.54 361.48 490.29 361.06   Q 489.58 359.87 489.17 361.26"
       id="path16" />
    <path
       stroke="#fdd4c5"
       vector-effect="non-scaling-stroke"
       d="   M 489.17 361.26   C 483.85 326.97 461.85 301.12 429.76 288.95   C 403.14 278.85 373.40 284.43 351.11 301.66   C 327.45 319.95 314.22 346.22 315.41 376.44"
       id="path17" />
    <path
       stroke="#fe7e69"
       vector-effect="non-scaling-stroke"
       d="   M 315.41 376.44   Q 315.44 375.66 312.99 376.86   Q 310.18 378.23 307.17 383.01   Q 306.64 383.85 307.09 384.13   Q 306.46 385.94 305.54 386.75"
       id="path18" />
    <path
       stroke="#fe7e69"
       vector-effect="non-scaling-stroke"
       d="   M 343.61 288.39   Q 350.49 281.77 358.05 277.12"
       id="path19" />
    <path
       stroke="#ff6955"
       vector-effect="non-scaling-stroke"
       d="   M 675.31 261.93   C 666.29 267.20 656.76 271.32 647.28 275.67   Q 646.82 275.88 646.82 276.39   L 646.82 276.85"
       id="path20" />
    <path
       stroke="#fe9478"
       vector-effect="non-scaling-stroke"
       d="   M 359.75 277.06   Q 359.35 277.23 358.05 277.12"
       id="path21" />
    <path
       stroke="#ff6955"
       vector-effect="non-scaling-stroke"
       d="   M 358.05 277.12   Q 358.68 276.81 358.30 276.56   C 349.86 271.16 339.99 268.28 331.03 263.84"
       id="path22" />
    <path
       stroke="#febeb0"
       vector-effect="non-scaling-stroke"
       d="   M 489.17 361.26   Q 490.86 374.41 488.27 387.50   Q 487.48 391.53 486.84 395.88"
       id="path23" />
    <path
       stroke="#fea9a2"
       vector-effect="non-scaling-stroke"
       d="   M 471.53 420.66   C 452.47 444.26 426.13 458.60 395.26 456.27   C 353.19 453.09 318.16 419.05 315.41 376.44"
       id="path24" />
    <path
       stroke="#fea9a2"
       vector-effect="non-scaling-stroke"
       d="   M 689.75 360.81   C 694.55 398.77 672.68 435.02 637.73 449.87   C 600.27 465.77 558.48 452.53 534.33 420.71"
       id="path25" />
    <path
       stroke="#febeb0"
       vector-effect="non-scaling-stroke"
       d="   M 520.47 396.74   Q 515.55 379.80 516.81 362.86"
       id="path26" />
    <path
       stroke="#fdd4c5"
       vector-effect="non-scaling-stroke"
       d="   M 306.10 451.80   Q 298.38 452.22 294.32 460.41   Q 293.02 463.02 293.35 465.93   Q 293.63 468.41 296.17 467.91   C 298.46 467.47 299.54 463.72 302.78 466.44   C 306.99 469.97 307.09 477.82 301.19 479.91   Q 294.15 482.39 289.01 477.52   A 1.78 1.78 0.0 0 0 286.44 477.66   C 284.11 480.37 284.22 484.35 286.76 486.89   C 289.58 489.73 296.28 490.37 296.83 494.30   C 298.08 503.20 289.31 505.37 283.41 501.16   Q 281.40 499.73 280.08 501.59   C 277.98 504.54 275.49 508.53 271.57 508.25   A 0.73 0.72 -9.9 0 0 270.85 509.27   C 272.98 514.00 272.89 517.70 270.46 522.30   Q 269.28 524.52 267.84 526.95"
       id="path27" />
    <path
       stroke="#fe7e69"
       vector-effect="non-scaling-stroke"
       d="   M 325.72 476.31   Q 318.90 499.44 304.98 517.85   C 301.79 522.07 297.64 526.25 293.84 530.34   Q 285.09 539.75 274.06 546.31   Q 272.41 547.29 271.06 550.11"
       id="path28" />
    <path
       stroke="#fdd4c5"
       vector-effect="non-scaling-stroke"
       d="   M 738.05 526.66   Q 736.13 523.10 735.02 519.50   Q 733.43 514.30 736.15 509.51   A 0.94 0.94 0.0 0 0 735.15 508.13   C 731.11 508.96 728.66 504.32 726.59 501.65   A 2.25 2.24 -34.8 0 0 723.62 501.12   Q 720.56 503.04 716.87 503.12   C 711.44 503.25 710.08 499.69 709.11 495.19   C 708.17 490.81 714.93 489.83 717.73 488.52   C 722.74 486.19 723.37 481.12 719.69 476.94   A 1.19 1.19 0.0 0 0 718.12 476.75   C 714.57 479.21 712.38 480.86 707.79 480.44   C 701.63 479.87 697.98 474.17 700.46 468.24   Q 701.55 465.63 704.44 465.76   C 706.81 465.86 709.25 468.90 711.53 467.96   C 713.84 467.02 713.38 463.21 712.54 461.44   Q 708.76 453.47 700.25 450.74"
       id="path29" />
    <path
       stroke="#fe7e69"
       vector-effect="non-scaling-stroke"
       d="   M 735.40 548.87   Q 727.87 544.67 719.81 537.68   C 702.93 523.04 688.39 504.22 681.95 483.00   Q 681.55 481.66 679.38 477.17"
       id="path30" />
    <path
       stroke="#e04b46"
       vector-effect="non-scaling-stroke"
       d="   M 652.44 593.19   Q 647.14 592.13 644.75 592.16   C 631.40 592.34 616.22 591.98 604.76 592.01   Q 525.00 592.20 445.24 591.95   C 424.16 591.89 403.09 592.20 382.00 592.01   Q 373.68 591.93 353.90 592.35"
       id="path31" />
    <path
       stroke="#e04b46"
       vector-effect="non-scaling-stroke"
       d="   M 391.15 507.06   Q 392.15 513.73 393.60 516.89   C 396.34 522.86 404.42 521.62 408.58 518.07   Q 414.03 513.40 415.72 508.12"
       id="path32" />
    <path
       stroke="#fdd4c5"
       vector-effect="non-scaling-stroke"
       d="   M 268.91 606.26   Q 251.05 605.69 242.75 605.74   Q 174.95 606.16 107.13 605.83   Q 106.63 605.83 106.24 606.14   Q 105.36 606.85 104.58 606.54"
       id="path33" />
    <path
       stroke="#fe7e69"
       vector-effect="non-scaling-stroke"
       d="   M 272.38 612.45   C 267.95 612.53 263.02 612.24 259.20 612.26   Q 161.02 612.60 109.25 612.16   Q 107.52 612.14 106.05 613.51"
       id="path34" />
    <path
       stroke="#fdd4c5"
       vector-effect="non-scaling-stroke"
       d="   M 901.02 606.23   C 849.68 605.35 798.20 605.98 746.84 605.96   Q 744.42 605.96 742.17 606.16   Q 739.93 606.37 737.52 606.61"
       id="path35" />
    <path
       stroke="#fe7e69"
       vector-effect="non-scaling-stroke"
       d="   M 899.58 613.07   Q 882.70 611.84 859.00 612.41   Q 826.61 613.19 734.28 612.24"
       id="path36" />
    <path
       stroke="#10bbf8"
       vector-effect="non-scaling-stroke"
       d="   M 755.30 745.06   Q 752.26 750.54 748.18 754.17   Q 738.64 762.64 717.51 780.79   Q 710.54 786.77 696.96 794.61"
       id="path37" />
    <path
       stroke="#1397d7"
       vector-effect="non-scaling-stroke"
       d="   M 817.46 731.91   Q 807.35 738.28 802.20 742.43   Q 784.61 756.62 744.60 790.21"
       id="path38" />
    <path
       stroke="#1a6899"
       vector-effect="non-scaling-stroke"
       d="   M 744.60 790.21   Q 738.86 788.11 733.20 790.67   Q 722.45 795.53 722.99 807.43"
       id="path39" />
    <path
       stroke="#1397d7"
       vector-effect="non-scaling-stroke"
       d="   M 722.99 807.43   Q 718.83 809.32 714.79 811.37   C 707.77 814.92 700.75 817.65 693.68 820.73   C 692.80 821.11 691.74 821.26 690.81 821.66   Q 690.36 821.85 690.01 821.52   Q 689.66 821.21 689.71 820.65"
       id="path40" />
    <path
       stroke="#fea9a2"
       vector-effect="non-scaling-stroke"
       d="   M 833.45 696.12   C 832.13 711.95 831.06 724.03 833.43 738.29   C 834.13 742.56 835.70 746.64 837.23 750.73"
       id="path41" />
    <path
       stroke="#89bfde"
       vector-effect="non-scaling-stroke"
       d="   M 827.78 764.19   Q 817.29 750.28 817.46 731.91"
       id="path42" />
    <path
       stroke="#87d6f7"
       vector-effect="non-scaling-stroke"
       d="   M 817.46 731.91   Q 817.38 722.79 819.67 712.81"
       id="path43" />
    <path
       stroke="#8a6a82"
       vector-effect="non-scaling-stroke"
       d="   M 256.76 788.83   Q 251.51 794.20 252.00 801.52   Q 252.85 814.56 263.03 818.22   C 274.20 822.24 283.75 816.35 286.90 805.06"
       id="path44" />
    <path
       stroke="#1c5180"
       vector-effect="non-scaling-stroke"
       d="   M 722.99 807.43   C 726.48 827.88 755.90 823.56 754.69 804.14   C 754.24 796.88 750.08 794.23 744.60 790.21"
       id="path45" />
    <path
       stroke="#878ea3"
       vector-effect="non-scaling-stroke"
       d="   M 258.20 788.27   L 262.67 785.50"
       id="path46" />
    <path
       stroke="#87acbe"
       vector-effect="non-scaling-stroke"
       d="   M 182.63 707.34   Q 183.69 711.01 184.90 714.48   C 187.04 720.60 187.27 727.09 187.98 733.40"
       id="path47" />
    <path
       stroke="#8995a5"
       vector-effect="non-scaling-stroke"
       d="   M 187.98 733.40   Q 187.54 736.14 187.31 738.75   Q 186.62 746.62 183.27 753.76   Q 181.60 757.31 176.81 763.11"
       id="path48" />
    <path
       stroke="#fe7e69"
       vector-effect="non-scaling-stroke"
       d="   M 168.14 750.68   C 173.50 735.57 173.85 719.64 172.46 704.05   C 172.26 701.80 172.37 699.29 172.13 696.81"
       id="path49" />
    <path
       stroke="#1397d7"
       vector-effect="non-scaling-stroke"
       d="   M 320.56 826.80   Q 319.66 827.70 319.02 826.67   Q 318.78 826.28 318.35 826.13   C 316.92 825.62 315.88 823.32 314.52 822.79   Q 302.32 818.06 288.23 809.26   Q 285.99 807.86 286.90 805.06"
       id="path50" />
    <path
       stroke="#88819b"
       vector-effect="non-scaling-stroke"
       d="   M 286.90 805.06   Q 287.55 795.10 280.33 788.40   Q 273.14 781.73 262.67 785.50"
       id="path51" />
    <path
       stroke="#10bbf8"
       vector-effect="non-scaling-stroke"
       d="   M 262.67 785.50   Q 260.75 785.80 258.45 787.73   Q 258.03 788.08 258.20 788.27"
       id="path52" />
    <path
       stroke="#88819b"
       vector-effect="non-scaling-stroke"
       d="   M 258.20 788.27   Q 257.41 789.03 256.76 788.83"
       id="path53" />
    <path
       stroke="#1397d7"
       vector-effect="non-scaling-stroke"
       d="   M 256.76 788.83   Q 256.95 788.09 255.69 787.05   Q 246.29 779.29 236.75 771.72   Q 215.94 755.20 195.32 738.45   Q 191.90 735.67 187.98 733.40"
       id="path54" />
    <path
       stroke="#10bbf8"
       vector-effect="non-scaling-stroke"
       d="   M 309.15 796.19   Q 307.45 795.10 305.78 794.27   C 301.39 792.10 297.26 788.69 293.26 785.84   C 278.50 775.34 265.88 762.94 251.29 751.22   Q 250.45 750.55 248.31 747.76   A 1.49 1.47 77.4 0 0 247.49 747.23   L 244.26 746.46   Q 243.87 746.37 243.89 745.97   Q 243.93 745.01 243.13 744.87   Q 242.63 744.77 243.18 744.60   Q 243.37 744.54 243.49 744.43"
       id="path55" />
    <path
       stroke="#fdb6a1"
       vector-effect="non-scaling-stroke"
       d="   M 446.37 707.57   C 441.45 709.63 440.83 704.49 437.05 703.06   Q 435.02 702.30 433.34 703.58   Q 426.93 708.45 420.23 712.19   Q 419.55 712.58 420.13 713.10   Q 427.09 719.30 434.20 723.79"
       id="path56" />
    <path
       stroke="#fde0da"
       vector-effect="non-scaling-stroke"
       d="   M 575.01 669.49   C 570.45 665.63 568.54 661.91 562.00 661.92   Q 514.62 661.96 467.25 661.74   Q 453.75 661.68 440.25 662.09   Q 437.29 662.18 435.47 663.37   Q 432.99 664.99 429.98 668.21"
       id="path57" />
    <path
       stroke="#fdb6a1"
       vector-effect="non-scaling-stroke"
       d="   M 570.76 722.76   Q 577.82 720.24 583.70 713.77   A 0.54 0.53 34.5 0 0 583.54 712.93   Q 576.49 709.44 569.94 704.54   Q 569.28 704.05 567.77 703.83   Q 567.28 703.76 566.83 703.96   Q 565.89 704.37 564.99 703.59"
       id="path58" />
    <path
       stroke="#fde0da"
       vector-effect="non-scaling-stroke"
       d="   M 551.23 734.48   Q 551.25 737.12 549.04 738.80   Q 527.66 755.06 506.32 771.38   C 502.99 773.93 500.09 772.43 497.22 770.28   Q 472.29 751.63 455.33 738.44   Q 454.06 737.45 453.68 735.55"
       id="path59" />
    <path
       stroke="#fde0da"
       vector-effect="non-scaling-stroke"
       d="   M 637.37 799.24   Q 636.94 799.98 635.99 800.55   A 1.33 1.33 0.0 0 0 635.41 801.29   Q 631.85 812.99 620.25 812.99   Q 517.97 813.00 415.69 812.99   C 409.15 812.99 397.19 813.35 387.92 813.02   Q 381.59 812.79 378.38 811.10   Q 371.87 807.66 369.22 799.23"
       id="path60" />
  </g>
  <g
     id="g120">
    <path
       fill="#0fc8ff"
       d="   M 910.04 539.41   Q 905.62 538.66 900.20 539.95   C 894.95 541.19 893.16 534.75 888.31 534.09   C 881.64 533.18 877.84 544.93 875.49 549.50   C 868.70 562.74 863.22 572.48 855.85 580.70   L 829.48 580.73   A 0.61 0.61 0.0 0 1 828.87 580.12   Q 828.78 562.64 828.51 545.26   C 828.08 518.81 812.16 499.68 787.68 491.57   Q 786.50 491.18 785.14 491.41   Q 784.65 491.50 784.39 491.92   Q 781.16 497.24 780.18 504.54   Q 780.15 506.61 779.70 509.36   C 778.43 517.13 780.07 526.28 783.13 533.08   Q 790.60 549.62 807.73 555.63   Q 811.25 557.63 812.84 557.64   L 812.85 579.65   A 1.05 1.05 0.0 0 1 811.80 580.70   L 749.16 580.69   Q 748.08 580.69 748.42 579.66   C 768.40 520.40 761.21 453.48 719.17 405.27   A 1.62 1.59 21.5 0 1 718.79 404.42   Q 718.55 402.62 718.68 401.99   C 725.46 368.52 717.98 334.33 700.38 305.60   Q 694.37 295.79 687.32 286.82   A 0.73 0.73 0.0 0 1 687.27 285.98   C 693.20 276.49 697.32 265.55 697.43 254.25   Q 697.66 232.61 697.47 224.50   C 697.27 216.08 690.38 211.24 682.22 214.35   Q 680.60 214.97 676.00 219.47   Q 671.63 223.75 662.96 229.47   C 653.40 235.78 640.44 241.68 629.09 240.06   Q 624.98 239.47 617.83 236.29   Q 609.17 232.44 600.51 228.59   C 541.68 202.42 476.46 202.44 416.52 223.80   C 406.24 227.47 395.54 232.63 385.20 237.45   C 366.91 245.98 343.25 232.42 330.25 220.48   C 326.38 216.93 322.56 212.53 317.46 213.39   C 307.69 215.03 308.49 222.23 308.36 231.17   Q 308.19 242.58 308.35 254.00   C 308.50 265.52 312.18 275.84 318.25 285.50   A 0.88 0.87 -49.5 0 1 318.31 286.34   Q 317.79 287.48 317.11 288.36   C 292.23 320.62 278.91 361.43 287.24 402.25   C 287.52 403.60 287.20 404.72 286.25 405.82   C 251.16 446.87 240.05 501.82 250.46 554.01   C 252.25 562.99 255.45 571.29 257.69 580.10   A 0.51 0.50 83.3 0 1 257.20 580.73   L 235.36 580.56   A 0.46 0.46 0.0 0 1 234.98 579.84   Q 244.05 566.16 243.09 549.50   C 242.86 545.50 239.26 539.69 234.21 541.05   C 217.79 545.47 204.42 550.32 194.00 564.77   C 190.61 569.48 189.16 574.50 187.03 579.78   Q 186.84 580.24 186.35 580.32   Q 183.52 580.77 180.75 580.76   Q 158.99 580.71 137.26 580.65   Q 137.04 580.65 137.03 580.42   L 136.69 546.18   Q 138.41 545.35 140.47 545.66   Q 140.99 545.74 141.36 545.37   C 145.89 540.88 147.84 534.45 145.64 528.42   Q 143.06 521.36 136.75 517.35   L 136.68 498.12   A 0.71 0.71 0.0 0 1 137.23 497.43   C 167.92 490.39 184.13 465.07 180.27 434.00   Q 179.79 430.14 178.17 426.61   A 0.89 0.88 -13.7 0 0 177.32 426.10   Q 174.57 426.24 170.28 427.53   C 147.72 434.27 128.09 446.49 122.93 471.08   Q 121.72 476.87 121.75 490.98   Q 121.82 527.30 121.80 564.35   Q 118.87 561.95 116.23 559.64   C 111.24 555.27 106.84 548.43 103.18 544.07   Q 100.07 540.37 95.43 538.51   Q 94.70 514.05 95.27 501.99   Q 97.75 449.62 111.56 403.00   C 129.45 342.62 160.91 290.41 203.22 244.20   Q 242.01 201.85 291.31 172.37   C 372.52 123.81 465.82 104.24 559.48 117.30   C 672.47 133.05 775.44 197.24 840.07 291.40   Q 886.63 359.23 902.81 439.50   Q 912.77 488.93 910.04 539.41   Z"
       id="path61" />
    <path
       fill="#fdfefd"
       d="   M 677.01 246.34   C 675.83 247.60 674.63 248.69 673.68 250.18   C 664.66 264.45 646.10 269.54 630.36 265.63   Q 627.84 265.00 630.02 266.41   L 645.86 276.63   L 644.48 280.96   A 2.71 2.71 0.0 0 1 640.56 282.49   Q 630.92 277.03 621.16 271.85   Q 614.24 268.19 593.46 260.37   C 557.43 246.81 517.19 240.62 478.75 244.75   Q 444.89 248.38 412.99 260.28   C 396.70 266.36 382.34 272.56 367.81 281.56   C 364.37 283.70 360.99 279.74 359.75 277.06   C 364.28 272.71 369.24 270.15 374.22 267.27   Q 376.44 265.99 373.90 266.34   C 361.87 268.03 347.30 265.68 337.80 257.14   C 334.88 254.51 332.47 250.55 330.08 247.09   Q 329.78 246.65 330.18 246.30   Q 330.43 246.09 330.73 246.20   Q 332.30 247.77 333.33 248.42   C 348.95 258.33 371.61 265.41 389.44 257.31   Q 400.53 252.27 411.74 247.54   C 468.13 223.77 529.71 222.28 586.88 244.41   Q 592.07 246.43 611.02 255.23   C 616.87 257.94 624.17 261.09 632.51 260.93   C 648.15 260.63 661.28 255.12 673.96 246.46   C 674.96 245.78 675.71 244.88 676.59 244.02   Q 677.05 243.58 677.19 244.20   Q 677.42 245.23 677.01 246.34   Z"
       id="path62" />
    <path
       fill="#fe7e63"
       d="   M 330.73 246.20   Q 330.43 246.09 330.18 246.30   Q 329.78 246.65 330.08 247.09   C 332.47 250.55 334.88 254.51 337.80 257.14   C 347.30 265.68 361.87 268.03 373.90 266.34   Q 376.44 265.99 374.22 267.27   C 369.24 270.15 364.28 272.71 359.75 277.06   Q 359.35 277.23 358.05 277.12   Q 358.68 276.81 358.30 276.56   C 349.86 271.16 339.99 268.28 331.03 263.84   Q 327.98 253.99 328.02 250.76   Q 328.06 247.22 327.74 244.20   Q 327.60 242.92 328.49 243.85   L 330.73 246.20   Z"
       id="path63" />
    <path
       fill="#fda98c"
       d="   M 645.86 276.63   Q 646.04 276.53 646.82 276.85   Q 654.98 282.12 662.11 288.48   Q 665.49 292.31 668.69 296.03   C 685.31 315.34 695.91 337.41 699.71 362.90   Q 696.12 363.81 691.85 360.67   Q 691.46 360.38 691.01 360.57   Q 690.36 360.84 689.75 360.81   C 684.70 328.63 666.03 305.64 637.26 291.72   C 604.05 275.65 565.49 286.12 540.43 311.95   C 526.28 326.53 519.67 342.85 516.81 362.86   Q 513.41 363.74 511.24 363.50   Q 501.16 362.37 491.03 361.52   Q 490.54 361.48 490.29 361.06   Q 489.58 359.87 489.17 361.26   C 483.85 326.97 461.85 301.12 429.76 288.95   C 403.14 278.85 373.40 284.43 351.11 301.66   C 327.45 319.95 314.22 346.22 315.41 376.44   Q 315.44 375.66 312.99 376.86   Q 310.18 378.23 307.17 383.01   Q 306.64 383.85 307.09 384.13   Q 306.46 385.94 305.54 386.75   C 303.60 357.94 311.64 331.30 327.44 307.94   Q 334.62 297.32 343.61 288.39   Q 350.49 281.77 358.05 277.12   Q 359.35 277.23 359.75 277.06   C 360.99 279.74 364.37 283.70 367.81 281.56   C 382.34 272.56 396.70 266.36 412.99 260.28   Q 444.89 248.38 478.75 244.75   C 517.19 240.62 557.43 246.81 593.46 260.37   Q 614.24 268.19 621.16 271.85   Q 630.92 277.03 640.56 282.49   A 2.71 2.71 0.0 0 0 644.48 280.96   L 645.86 276.63   Z"
       id="path64" />
    <path
       fill="#fe7e63"
       d="   M 677.01 246.34   C 677.88 251.07 676.41 257.32 675.31 261.93   C 666.29 267.20 656.76 271.32 647.28 275.67   Q 646.82 275.88 646.82 276.39   L 646.82 276.85   Q 646.04 276.53 645.86 276.63   L 630.02 266.41   Q 627.84 265.00 630.36 265.63   C 646.10 269.54 664.66 264.45 673.68 250.18   C 674.63 248.69 675.83 247.60 677.01 246.34   Z"
       id="path65" />
    <path
       fill="#ff5346"
       d="   M 675.31 261.93   C 672.79 271.93 668.04 279.44 662.11 288.48   Q 654.98 282.12 646.82 276.85   L 646.82 276.39   Q 646.82 275.88 647.28 275.67   C 656.76 271.32 666.29 267.20 675.31 261.93   Z"
       id="path66" />
    <path
       fill="#ff5346"
       d="   M 331.03 263.84   C 339.99 268.28 349.86 271.16 358.30 276.56   Q 358.68 276.81 358.05 277.12   Q 350.49 281.77 343.61 288.39   Q 334.57 277.15 331.03 263.84   Z"
       id="path67" />
    <path
       fill="#fdfefd"
       d="   M 489.17 361.26   Q 490.86 374.41 488.27 387.50   Q 487.48 391.53 486.84 395.88   Q 474.11 404.85 471.53 420.66   C 452.47 444.26 426.13 458.60 395.26 456.27   C 353.19 453.09 318.16 419.05 315.41 376.44   C 314.22 346.22 327.45 319.95 351.11 301.66   C 373.40 284.43 403.14 278.85 429.76 288.95   C 461.85 301.12 483.85 326.97 489.17 361.26   Z"
       id="path68" />
    <path
       fill="#fdfefd"
       d="   M 689.75 360.81   C 694.55 398.77 672.68 435.02 637.73 449.87   C 600.27 465.77 558.48 452.53 534.33 420.71   Q 532.16 413.77 531.43 412.00   Q 527.88 403.37 520.47 396.74   Q 515.55 379.80 516.81 362.86   C 519.67 342.85 526.28 326.53 540.43 311.95   C 565.49 286.12 604.05 275.65 637.26 291.72   C 666.03 305.64 684.70 328.63 689.75 360.81   Z"
       id="path69" />
    <path
       fill="#ff5346"
       d="   M 699.71 362.90   Q 703.89 394.17 690.54 425.05   C 672.61 466.55 636.02 490.05 590.50 487.05   Q 561.38 485.13 538.29 468.25   C 533.31 464.61 528.06 459.65 523.14 455.19   Q 522.71 454.80 523.06 454.34   Q 530.30 444.75 532.84 433.16   C 533.65 429.47 533.81 424.87 534.33 420.71   C 558.48 452.53 600.27 465.77 637.73 449.87   C 672.68 435.02 694.55 398.77 689.75 360.81   Q 690.36 360.84 691.01 360.57   Q 691.46 360.38 691.85 360.67   Q 696.12 363.81 699.71 362.90   Z"
       id="path70" />
    <path
       fill="#fe7e63"
       d="   M 516.81 362.86   Q 515.55 379.80 520.47 396.74   C 508.35 390.52 499.30 389.02 486.84 395.88   Q 487.48 391.53 488.27 387.50   Q 490.86 374.41 489.17 361.26   Q 489.58 359.87 490.29 361.06   Q 490.54 361.48 491.03 361.52   Q 501.16 362.37 511.24 363.50   Q 513.41 363.74 516.81 362.86   Z"
       id="path71" />
    <path
       fill="#ff5346"
       d="   M 315.41 376.44   C 318.16 419.05 353.19 453.09 395.26 456.27   C 426.13 458.60 452.47 444.26 471.53 420.66   Q 471.62 422.17 471.54 423.89   C 471.09 433.76 476.55 445.99 482.21 453.92   A 1.53 1.51 -40.5 0 1 482.05 455.86   Q 450.86 487.65 406.98 487.42   C 376.53 487.25 349.46 474.77 330.43 450.81   C 316.39 433.14 307.00 408.88 305.54 386.75   Q 306.46 385.94 307.09 384.13   Q 306.64 383.85 307.17 383.01   Q 310.18 378.23 312.99 376.86   Q 315.44 375.66 315.41 376.44   Z"
       id="path72" />
    <path
       fill="#fda98c"
       d="   M 502.18 451.55   C 496.72 442.46 483.28 421.21 495.83 412.58   Q 498.94 410.45 502.97 410.65   C 513.69 411.20 516.79 421.73 513.78 430.49   Q 509.82 441.99 503.40 451.58   Q 502.77 452.52 502.18 451.55   Z"
       id="path73" />
    <path
       fill="#fdfefd"
       d="   M 306.10 451.80   Q 298.38 452.22 294.32 460.41   Q 293.02 463.02 293.35 465.93   Q 293.63 468.41 296.17 467.91   C 298.46 467.47 299.54 463.72 302.78 466.44   C 306.99 469.97 307.09 477.82 301.19 479.91   Q 294.15 482.39 289.01 477.52   A 1.78 1.78 0.0 0 0 286.44 477.66   C 284.11 480.37 284.22 484.35 286.76 486.89   C 289.58 489.73 296.28 490.37 296.83 494.30   C 298.08 503.20 289.31 505.37 283.41 501.16   Q 281.40 499.73 280.08 501.59   C 277.98 504.54 275.49 508.53 271.57 508.25   A 0.73 0.72 -9.9 0 0 270.85 509.27   C 272.98 514.00 272.89 517.70 270.46 522.30   Q 269.28 524.52 267.84 526.95   C 264.88 491.67 273.42 456.62 294.35 427.94   A 0.39 0.39 0.0 0 1 295.03 428.03   Q 299.95 441.02 306.10 451.80   Z"
       id="path74" />
    <path
       fill="#fdfefd"
       d="   M 738.05 526.66   Q 736.13 523.10 735.02 519.50   Q 733.43 514.30 736.15 509.51   A 0.94 0.94 0.0 0 0 735.15 508.13   C 731.11 508.96 728.66 504.32 726.59 501.65   A 2.25 2.24 -34.8 0 0 723.62 501.12   Q 720.56 503.04 716.87 503.12   C 711.44 503.25 710.08 499.69 709.11 495.19   C 708.17 490.81 714.93 489.83 717.73 488.52   C 722.74 486.19 723.37 481.12 719.69 476.94   A 1.19 1.19 0.0 0 0 718.12 476.75   C 714.57 479.21 712.38 480.86 707.79 480.44   C 701.63 479.87 697.98 474.17 700.46 468.24   Q 701.55 465.63 704.44 465.76   C 706.81 465.86 709.25 468.90 711.53 467.96   C 713.84 467.02 713.38 463.21 712.54 461.44   Q 708.76 453.47 700.25 450.74   Q 706.20 439.80 710.55 428.21   Q 710.88 427.31 711.44 428.09   C 731.87 456.76 740.80 491.55 738.05 526.66   Z"
       id="path75" />
    <path
       fill="#ff5346"
       d="   M 137.03 481.27   C 139.95 463.30 149.16 454.51 164.85 446.74   A 0.29 0.29 0.0 0 1 165.26 447.02   C 164.60 455.30 161.99 463.10 156.67 469.55   C 151.49 475.82 144.51 478.93 137.58 482.30   A 0.56 0.56 0.0 0 1 136.92 482.16   Q 136.59 481.75 137.03 481.27   Z"
       id="path76" />
    <path
       fill="#fda98c"
       d="   M 700.25 450.74   Q 708.76 453.47 712.54 461.44   C 713.38 463.21 713.84 467.02 711.53 467.96   C 709.25 468.90 706.81 465.86 704.44 465.76   Q 701.55 465.63 700.46 468.24   C 697.98 474.17 701.63 479.87 707.79 480.44   C 712.38 480.86 714.57 479.21 718.12 476.75   A 1.19 1.19 0.0 0 1 719.69 476.94   C 723.37 481.12 722.74 486.19 717.73 488.52   C 714.93 489.83 708.17 490.81 709.11 495.19   C 710.08 499.69 711.44 503.25 716.87 503.12   Q 720.56 503.04 723.62 501.12   A 2.25 2.24 -34.8 0 1 726.59 501.65   C 728.66 504.32 731.11 508.96 735.15 508.13   A 0.94 0.94 0.0 0 1 736.15 509.51   Q 733.43 514.30 735.02 519.50   Q 736.13 523.10 738.05 526.66   Q 737.54 537.10 735.40 548.87   Q 727.87 544.67 719.81 537.68   C 702.93 523.04 688.39 504.22 681.95 483.00   Q 681.55 481.66 679.38 477.17   Q 691.03 465.13 700.25 450.74   Z"
       id="path77" />
    <path
       fill="#fda98c"
       d="   M 306.10 451.80   Q 315.50 465.85 325.72 476.31   Q 318.90 499.44 304.98 517.85   C 301.79 522.07 297.64 526.25 293.84 530.34   Q 285.09 539.75 274.06 546.31   Q 272.41 547.29 271.06 550.11   L 267.84 526.95   Q 269.28 524.52 270.46 522.30   C 272.89 517.70 272.98 514.00 270.85 509.27   A 0.73 0.72 -9.9 0 1 271.57 508.25   C 275.49 508.53 277.98 504.54 280.08 501.59   Q 281.40 499.73 283.41 501.16   C 289.31 505.37 298.08 503.20 296.83 494.30   C 296.28 490.37 289.58 489.73 286.76 486.89   C 284.22 484.35 284.11 480.37 286.44 477.66   A 1.78 1.78 0.0 0 1 289.01 477.52   Q 294.15 482.39 301.19 479.91   C 307.09 477.82 306.99 469.97 302.78 466.44   C 299.54 463.72 298.46 467.47 296.17 467.91   Q 293.63 468.41 293.35 465.93   Q 293.02 463.02 294.32 460.41   Q 298.38 452.22 306.10 451.80   Z"
       id="path78" />
    <path
       fill="#ff5346"
       d="   M 652.44 593.19   Q 647.14 592.13 644.75 592.16   C 631.40 592.34 616.22 591.98 604.76 592.01   Q 525.00 592.20 445.24 591.95   C 424.16 591.89 403.09 592.20 382.00 592.01   Q 373.68 591.93 353.90 592.35   C 366.10 563.82 369.79 534.53 363.72 503.97   Q 363.25 501.59 362.50 499.82   Q 361.92 498.46 363.21 499.19   C 371.01 503.63 382.16 505.87 391.15 507.06   Q 392.15 513.73 393.60 516.89   C 396.34 522.86 404.42 521.62 408.58 518.07   Q 414.03 513.40 415.72 508.12   C 444.88 506.00 472.01 493.96 492.76 472.89   A 0.72 0.72 0.0 0 1 493.87 473.00   C 495.64 475.63 499.31 480.63 502.24 481.46   C 505.53 482.39 510.25 474.89 511.71 472.62   Q 512.09 472.02 512.60 472.52   C 531.88 491.42 557.32 504.75 584.24 507.36   C 603.88 509.27 624.47 507.38 643.03 499.61   A 0.38 0.38 0.0 0 1 643.55 500.05   Q 631.87 547.99 652.44 593.19   Z"
       id="path79" />
    <path
       fill="#ff5346"
       d="   M 325.72 476.31   C 329.96 480.14 335.34 484.42 336.52 487.44   C 355.85 536.72 343.13 587.90 307.11 625.44   A 0.76 0.76 0.0 0 1 305.96 625.39   C 288.70 603.94 276.67 576.85 271.06 550.11   Q 272.41 547.29 274.06 546.31   Q 285.09 539.75 293.84 530.34   C 297.64 526.25 301.79 522.07 304.98 517.85   Q 318.90 499.44 325.72 476.31   Z"
       id="path80" />
    <path
       fill="#ff5346"
       d="   M 679.38 477.17   Q 681.55 481.66 681.95 483.00   C 688.39 504.22 702.93 523.04 719.81 537.68   Q 727.87 544.67 735.40 548.87   Q 731.13 570.44 721.69 590.82   C 717.05 600.84 710.93 610.76 704.61 620.12   Q 702.52 623.22 700.21 625.73   A 0.81 0.80 44.8 0 1 699.04 625.73   Q 669.01 594.21 661.74 551.27   C 658.13 529.97 661.76 507.37 669.18 487.26   A 4.58 4.47 -11.9 0 1 670.33 485.54   L 679.38 477.17   Z"
       id="path81" />
    <path
       fill="#fdfefd"
       d="   M 780.18 504.54   L 790.80 511.76   Q 790.37 522.91 794.58 532.15   Q 800.20 544.45 807.73 555.63   Q 790.60 549.62 783.13 533.08   C 780.07 526.28 778.43 517.13 779.70 509.36   Q 780.15 506.61 780.18 504.54   Z"
       id="path82" />
    <path
       fill="#c04346"
       d="   M 391.15 507.06   Q 403.25 508.41 415.72 508.12   Q 414.03 513.40 408.58 518.07   C 404.42 521.62 396.34 522.86 393.60 516.89   Q 392.15 513.73 391.15 507.06   Z"
       id="path83" />
    <path
       fill="#ff5346"
       d="   M 790.80 511.76   C 808.66 522.56 813.40 538.10 812.84 557.64   Q 811.25 557.63 807.73 555.63   Q 800.20 544.45 794.58 532.15   Q 790.37 522.91 790.80 511.76   Z"
       id="path84" />
    <path
       fill="#10aef0"
       d="   M 136.75 517.35   Q 143.06 521.36 145.64 528.42   C 147.84 534.45 145.89 540.88 141.36 545.37   Q 140.99 545.74 140.47 545.66   Q 138.41 545.35 136.69 546.18   L 136.75 517.35   Z"
       id="path85" />
    <path
       fill="#10aef0"
       d="   M 910.04 539.41   Q 909.33 556.30 906.71 575.74   Q 906.34 578.55 905.97 580.19   A 0.68 0.68 0.0 0 1 905.31 580.72   L 855.85 580.70   C 863.22 572.48 868.70 562.74 875.49 549.50   C 877.84 544.93 881.64 533.18 888.31 534.09   C 893.16 534.75 894.95 541.19 900.20 539.95   Q 905.62 538.66 910.04 539.41   Z"
       id="path86" />
    <path
       fill="#10aef0"
       d="   M 95.43 538.51   Q 100.07 540.37 103.18 544.07   C 106.84 548.43 111.24 555.27 116.23 559.64   Q 118.87 561.95 121.80 564.35   L 121.67 579.87   A 0.64 0.63 -0.0 0 1 121.04 580.49   L 100.59 580.77   Q 100.02 580.78 99.92 580.21   C 97.49 565.83 96.10 551.71 95.43 538.51   Z"
       id="path87" />
    <path
       fill="#fe7e63"
       d="   M 203.29 580.43   C 204.74 575.68 208.72 570.94 212.34 567.72   C 216.37 564.15 221.79 561.69 226.97 559.54   Q 227.67 559.25 227.53 560.00   C 225.01 573.32 215.22 577.23 203.63 580.77   A 0.27 0.27 0.0 0 1 203.29 580.43   Z"
       id="path88" />
    <path
       fill="#c04346"
       d="   M 652.44 593.19   Q 654.87 597.99 657.54 603.31   Q 662.74 613.69 669.47 622.98   A 0.45 0.45 0.0 0 1 669.11 623.69   L 336.43 623.71   A 0.52 0.52 0.0 0 1 336.02 622.87   C 343.30 613.46 348.96 603.18 353.90 592.35   Q 373.68 591.93 382.00 592.01   C 403.09 592.20 424.16 591.89 445.24 591.95   Q 525.00 592.20 604.76 592.01   C 616.22 591.98 631.40 592.34 644.75 592.16   Q 647.14 592.13 652.44 593.19   Z"
       id="path89" />
    <path
       fill="#fdfefd"
       d="   M 268.91 606.26   Q 251.05 605.69 242.75 605.74   Q 174.95 606.16 107.13 605.83   Q 106.63 605.83 106.24 606.14   Q 105.36 606.85 104.58 606.54   L 102.86 600.19   A 0.21 0.20 82.2 0 1 103.05 599.93   L 265.04 599.86   A 0.98 0.97 -13.4 0 1 265.91 600.39   L 268.91 606.26   Z"
       id="path90" />
    <path
       fill="#fdfefd"
       d="   M 901.02 606.23   C 849.68 605.35 798.20 605.98 746.84 605.96   Q 744.42 605.96 742.17 606.16   Q 739.93 606.37 737.52 606.61   L 740.49 600.35   A 0.83 0.82 12.3 0 1 741.24 599.87   L 901.79 599.84   Q 902.32 599.84 902.21 600.36   L 901.02 606.23   Z"
       id="path91" />
    <path
       fill="#fda98c"
       d="   M 268.91 606.26   L 272.38 612.45   C 267.95 612.53 263.02 612.24 259.20 612.26   Q 161.02 612.60 109.25 612.16   Q 107.52 612.14 106.05 613.51   L 104.58 606.54   Q 105.36 606.85 106.24 606.14   Q 106.63 605.83 107.13 605.83   Q 174.95 606.16 242.75 605.74   Q 251.05 605.69 268.91 606.26   Z"
       id="path92" />
    <path
       fill="#fda98c"
       d="   M 901.02 606.23   L 899.58 613.07   Q 882.70 611.84 859.00 612.41   Q 826.61 613.19 734.28 612.24   L 737.52 606.61   Q 739.93 606.37 742.17 606.16   Q 744.42 605.96 746.84 605.96   C 798.20 605.98 849.68 605.35 901.02 606.23   Z"
       id="path93" />
    <path
       fill="#ff5346"
       d="   M 272.38 612.45   L 278.79 623.33   A 0.24 0.24 0.0 0 1 278.58 623.69   L 139.53 623.65   A 0.84 0.84 0.0 0 0 138.79 624.90   Q 140.65 628.30 143.29 631.69   C 151.93 642.77 160.86 653.90 171.60 663.03   C 174.97 665.90 176.54 667.61 173.90 671.73   C 170.65 676.80 160.97 666.75 158.90 664.35   Q 146.89 650.47 135.05 636.43   C 131.86 632.66 130.52 629.54 130.62 624.82   A 1.16 1.16 0.0 0 0 129.46 623.64   L 109.42 623.67   A 1.62 1.62 0.0 0 1 107.82 622.36   L 106.05 613.51   Q 107.52 612.14 109.25 612.16   Q 161.02 612.60 259.20 612.26   C 263.02 612.24 267.95 612.53 272.38 612.45   Z"
       id="path94" />
    <path
       fill="#ff5346"
       d="   M 734.28 612.24   Q 826.61 613.19 859.00 612.41   Q 882.70 611.84 899.58 613.07   Q 898.82 617.68 897.78 621.27   Q 896.98 624.00 894.50 623.91   Q 886.14 623.62 877.80 624.14   A 0.60 0.60 0.0 0 0 877.23 624.73   C 877.11 629.92 875.69 633.04 872.10 637.11   Q 851.47 660.47 844.12 667.87   Q 842.25 669.76 837.00 672.38   C 834.70 673.53 833.54 673.02 831.84 671.40   C 829.14 668.82 831.26 665.56 833.63 663.61   C 837.07 660.79 840.58 658.12 843.65 654.97   Q 854.97 643.34 865.33 630.84   Q 867.57 628.14 868.95 624.86   A 0.56 0.56 0.0 0 0 868.47 624.08   Q 859.88 623.66 851.25 623.63   Q 789.14 623.44 727.02 623.81   A 0.26 0.26 0.0 0 1 726.80 623.40   L 734.28 612.24   Z"
       id="path95" />
    <path
       fill="#0fc8ff"
       d="   M 755.30 745.06   Q 752.26 750.54 748.18 754.17   Q 738.64 762.64 717.51 780.79   Q 710.54 786.77 696.96 794.61   C 698.10 771.04 696.98 747.12 697.02 723.50   Q 697.06 692.21 697.05 660.38   Q 697.05 659.02 698.35 659.42   C 703.06 660.88 710.74 648.68 713.55 644.55   Q 714.82 642.67 717.50 642.70   Q 744.00 643.01 770.50 643.00   C 781.90 643.00 799.14 643.25 813.45 642.94   C 819.22 642.82 826.91 643.14 833.65 642.72   Q 834.39 642.67 833.89 643.23   C 820.29 658.28 803.97 662.14 783.74 665.40   C 745.92 671.48 723.61 696.71 718.21 733.75   Q 717.63 737.75 717.77 741.48   A 1.72 1.71 -87.2 0 0 719.24 743.11   Q 736.43 745.57 755.30 745.06   Z"
       id="path96" />
    <path
       fill="#0fc8ff"
       d="   M 309.15 796.19   Q 307.45 795.10 305.78 794.27   C 301.39 792.10 297.26 788.69 293.26 785.84   C 278.50 775.34 265.88 762.94 251.29 751.22   Q 250.45 750.55 248.31 747.76   A 1.49 1.47 77.4 0 0 247.49 747.23   L 244.26 746.46   Q 243.87 746.37 243.89 745.97   Q 243.93 745.01 243.13 744.87   Q 242.63 744.77 243.18 744.60   Q 243.37 744.54 243.49 744.43   C 255.24 745.83 269.34 744.90 281.75 743.62   Q 284.59 743.33 287.23 742.33   Q 287.72 742.15 287.80 741.63   Q 288.01 740.14 287.77 738.02   C 283.28 698.94 264.32 674.85 225.50 665.83   C 216.26 663.68 203.36 661.66 192.78 657.92   C 185.25 655.27 178.24 649.01 172.61 643.39   Q 172.24 643.02 172.76 643.02   L 289.53 642.98   A 3.32 3.31 72.4 0 1 292.24 644.39   C 295.70 649.31 298.94 653.92 303.09 658.27   C 304.61 659.87 306.13 660.26 308.00 659.05   A 0.59 0.58 73.5 0 1 308.90 659.54   L 309.15 796.19   Z"
       id="path97" />
    <path
       fill="#fcc2b6"
       d="   M 446.37 707.57   C 441.45 709.63 440.83 704.49 437.05 703.06   Q 435.02 702.30 433.34 703.58   Q 426.93 708.45 420.23 712.19   Q 419.55 712.58 420.13 713.10   Q 427.09 719.30 434.20 723.79   Q 432.25 725.39 429.49 727.47   Q 381.58 763.66 333.78 799.99   C 332.84 800.70 332.05 801.74 331.11 802.56   A 0.32 0.32 0.0 0 1 330.58 802.33   Q 329.95 787.97 329.99 773.50   Q 330.21 708.77 330.03 644.04   Q 330.03 643.50 330.57 643.50   Q 345.88 643.46 360.97 643.29   Q 361.92 643.28 363.52 644.48   Q 405.08 675.52 446.37 707.57   Z"
       id="path98" />
    <path
       fill="#fcc2b6"
       d="   M 575.01 669.49   C 570.45 665.63 568.54 661.91 562.00 661.92   Q 514.62 661.96 467.25 661.74   Q 453.75 661.68 440.25 662.09   Q 437.29 662.18 435.47 663.37   Q 432.99 664.99 429.98 668.21   L 398.27 643.83   Q 397.59 643.30 398.45 643.23   C 399.07 643.18 399.92 643.53 400.52 643.53   Q 504.61 643.46 608.69 643.60   Q 609.27 643.60 608.81 643.95   L 575.01 669.49   Z"
       id="path99" />
    <path
       fill="#fcc2b6"
       d="   M 570.76 722.76   Q 577.82 720.24 583.70 713.77   A 0.54 0.53 34.5 0 0 583.54 712.93   Q 576.49 709.44 569.94 704.54   Q 569.28 704.05 567.77 703.83   Q 567.28 703.76 566.83 703.96   Q 565.89 704.37 564.99 703.59   C 585.34 687.97 605.89 672.62 626.12 656.86   Q 633.17 651.37 642.17 644.65   C 644.48 642.93 645.60 643.49 648.16 643.47   Q 662.01 643.34 675.87 643.52   Q 676.39 643.53 676.39 644.05   Q 676.29 717.17 676.22 790.24   Q 676.21 794.64 675.70 801.42   Q 675.66 802.02 675.18 801.66   L 570.76 722.76   Z"
       id="path100" />
    <path
       fill="#1580be"
       d="   M 142.50 708.86   C 130.61 688.97 122.16 666.63 114.41 644.88   Q 114.28 644.51 114.63 644.35   L 114.88 644.24   Q 115.00 644.19 115.06 644.30   C 124.62 662.10 131.44 674.29 141.13 687.87   C 143.97 691.85 143.52 694.40 143.39 700.12   Q 143.30 704.43 143.02 708.73   Q 142.96 709.63 142.50 708.86   Z"
       id="path101" />
    <path
       fill="#1580be"
       d="   M 890.36 647.22   C 882.59 668.89 873.41 690.16 862.93 710.46   Q 861.91 712.44 861.82 710.22   C 861.60 704.89 860.00 694.17 863.44 689.66   Q 878.72 669.60 889.93 647.04   Q 890.03 646.84 890.23 646.93   L 890.24 646.93   Q 890.43 647.02 890.36 647.22   Z"
       id="path102" />
    <path
       fill="#fdfefd"
       d="   M 575.01 669.49   L 503.17 723.98   Q 502.79 724.27 502.41 723.97   L 429.98 668.21   Q 432.99 664.99 435.47 663.37   Q 437.29 662.18 440.25 662.09   Q 453.75 661.68 467.25 661.74   Q 514.62 661.96 562.00 661.92   C 568.54 661.91 570.45 665.63 575.01 669.49   Z"
       id="path103" />
    <path
       fill="#ff5346"
       d="   M 187.94 677.47   C 205.57 687.38 220.72 694.69 242.26 704.69   C 253.26 709.80 261.27 717.18 267.03 727.70   A 0.31 0.30 -16.4 0 1 266.78 728.15   C 248.38 729.14 231.27 726.94 216.73 715.15   C 205.55 706.09 196.62 691.74 188.68 679.85   Q 187.93 678.74 187.51 677.88   Q 187.06 676.98 187.94 677.47   Z"
       id="path104" />
    <path
       fill="#ff5346"
       d="   M 783.37 695.53   Q 800.88 687.56 817.20 678.61   Q 818.53 677.88 817.72 679.16   C 810.30 690.85 800.98 705.07 791.01 713.39   C 775.63 726.22 758.56 728.79 738.79 728.23   A 0.52 0.52 0.0 0 1 738.40 727.38   C 740.56 724.69 742.36 721.23 744.31 718.94   Q 750.90 711.19 761.95 705.70   Q 772.57 700.44 783.37 695.53   Z"
       id="path105" />
    <path
       fill="#fdfefd"
       d="   M 833.45 696.12   C 832.13 711.95 831.06 724.03 833.43 738.29   C 834.13 742.56 835.70 746.64 837.23 750.73   L 827.78 764.19   Q 817.29 750.28 817.46 731.91   Q 817.38 722.79 819.67 712.81   Q 824.96 701.42 832.24 690.87   Q 832.68 690.25 832.66 691.01   Q 832.60 694.26 833.45 696.12   Z"
       id="path106" />
    <path
       fill="#fda98c"
       d="   M 182.63 707.34   Q 183.69 711.01 184.90 714.48   C 187.04 720.60 187.27 727.09 187.98 733.40   Q 187.54 736.14 187.31 738.75   Q 186.62 746.62 183.27 753.76   Q 181.60 757.31 176.81 763.11   L 168.14 750.68   C 173.50 735.57 173.85 719.64 172.46 704.05   C 172.26 701.80 172.37 699.29 172.13 696.81   L 173.20 693.27   Q 173.40 692.60 173.82 693.16   Q 178.96 700.05 182.63 707.34   Z"
       id="path107" />
    <path
       fill="#ff5346"
       d="   M 833.45 696.12   Q 838.88 702.23 841.13 705.90   C 845.75 713.40 846.86 722.13 847.20 730.75   C 847.44 736.67 842.25 744.10 837.23 750.73   C 835.70 746.64 834.13 742.56 833.43 738.29   C 831.06 724.03 832.13 711.95 833.45 696.12   Z"
       id="path108" />
    <path
       fill="#ff5346"
       d="   M 172.13 696.81   C 172.37 699.29 172.26 701.80 172.46 704.05   C 173.85 719.64 173.50 735.57 168.14 750.68   Q 162.76 743.20 158.25 735.51   C 155.98 731.64 157.88 721.40 158.72 716.99   Q 159.83 711.24 163.16 706.42   Q 167.00 700.87 172.13 696.81   Z"
       id="path109" />
    <path
       fill="#fda98c"
       d="   M 446.37 707.57   L 450.26 710.51   A 0.57 0.56 44.7 0 1 450.27 711.41   L 434.20 723.79   Q 427.09 719.30 420.13 713.10   Q 419.55 712.58 420.23 712.19   Q 426.93 708.45 433.34 703.58   Q 435.02 702.30 437.05 703.06   C 440.83 704.49 441.45 709.63 446.37 707.57   Z"
       id="path110" />
    <path
       fill="#fda98c"
       d="   M 564.99 703.59   Q 565.89 704.37 566.83 703.96   Q 567.28 703.76 567.77 703.83   Q 569.28 704.05 569.94 704.54   Q 576.49 709.44 583.54 712.93   A 0.54 0.53 34.5 0 1 583.70 713.77   Q 577.82 720.24 570.76 722.76   L 556.00 711.38   A 0.63 0.63 0.0 0 1 556.00 710.38   L 564.99 703.59   Z"
       id="path111" />
    <path
       fill="#10aef0"
       d="   M 182.63 707.34   C 186.31 712.36 189.43 717.52 193.89 721.53   C 207.69 733.92 225.20 741.58 243.49 744.43   Q 243.37 744.54 243.18 744.60   Q 242.63 744.77 243.13 744.87   Q 243.93 745.01 243.89 745.97   Q 243.87 746.37 244.26 746.46   L 247.49 747.23   A 1.49 1.47 77.4 0 1 248.31 747.76   Q 250.45 750.55 251.29 751.22   C 265.88 762.94 278.50 775.34 293.26 785.84   C 297.26 788.69 301.39 792.10 305.78 794.27   Q 307.45 795.10 309.15 796.19   Q 310.74 812.89 320.56 826.80   Q 319.66 827.70 319.02 826.67   Q 318.78 826.28 318.35 826.13   C 316.92 825.62 315.88 823.32 314.52 822.79   Q 302.32 818.06 288.23 809.26   Q 285.99 807.86 286.90 805.06   Q 287.55 795.10 280.33 788.40   Q 273.14 781.73 262.67 785.50   Q 260.75 785.80 258.45 787.73   Q 258.03 788.08 258.20 788.27   Q 257.41 789.03 256.76 788.83   Q 256.95 788.09 255.69 787.05   Q 246.29 779.29 236.75 771.72   Q 215.94 755.20 195.32 738.45   Q 191.90 735.67 187.98 733.40   C 187.27 727.09 187.04 720.60 184.90 714.48   Q 183.69 711.01 182.63 707.34   Z"
       id="path112" />
    <path
       fill="#10aef0"
       d="   M 819.67 712.81   Q 817.38 722.79 817.46 731.91   Q 807.35 738.28 802.20 742.43   Q 784.61 756.62 744.60 790.21   Q 738.86 788.11 733.20 790.67   Q 722.45 795.53 722.99 807.43   Q 718.83 809.32 714.79 811.37   C 707.77 814.92 700.75 817.65 693.68 820.73   C 692.80 821.11 691.74 821.26 690.81 821.66   Q 690.36 821.85 690.01 821.52   Q 689.66 821.21 689.71 820.65   Q 696.57 808.14 696.96 794.61   Q 710.54 786.77 717.51 780.79   Q 738.64 762.64 748.18 754.17   Q 752.26 750.54 755.30 745.06   Q 761.82 744.56 769.50 742.60   C 788.45 737.77 807.13 728.24 819.67 712.81   Z"
       id="path113" />
    <path
       fill="#fcc2b6"
       d="   M 551.23 734.48   Q 551.25 737.12 549.04 738.80   Q 527.66 755.06 506.32 771.38   C 502.99 773.93 500.09 772.43 497.22 770.28   Q 472.29 751.63 455.33 738.44   Q 454.06 737.45 453.68 735.55   L 468.33 724.37   Q 468.72 724.07 469.10 724.37   Q 483.65 735.60 498.11 746.91   C 500.33 748.64 502.45 750.51 504.74 748.73   C 515.33 740.50 526.48 732.87 536.53 723.98   Q 536.92 723.63 537.34 723.95   L 551.23 734.48   Z"
       id="path114" />
    <path
       fill="#1580be"
       d="   M 817.46 731.91   Q 817.29 750.28 827.78 764.19   Q 825.68 767.91 823.55 770.54   C 750.64 860.73 647.26 917.67 531.75 925.77   C 467.64 930.28 401.81 919.88 342.78 894.20   Q 332.36 889.67 312.16 879.10   C 259.71 851.65 213.82 811.91 177.84 764.93   Q 177.57 764.57 177.35 764.02   Q 177.07 763.32 176.81 763.11   Q 181.60 757.31 183.27 753.76   Q 186.62 746.62 187.31 738.75   Q 187.54 736.14 187.98 733.40   Q 191.90 735.67 195.32 738.45   Q 215.94 755.20 236.75 771.72   Q 246.29 779.29 255.69 787.05   Q 256.95 788.09 256.76 788.83   Q 251.51 794.20 252.00 801.52   Q 252.85 814.56 263.03 818.22   C 274.20 822.24 283.75 816.35 286.90 805.06   Q 285.99 807.86 288.23 809.26   Q 302.32 818.06 314.52 822.79   C 315.88 823.32 316.92 825.62 318.35 826.13   Q 318.78 826.28 319.02 826.67   Q 319.66 827.70 320.56 826.80   Q 335.51 846.68 360.51 846.69   Q 480.99 846.76 601.50 846.65   C 617.02 846.64 632.48 846.95 648.00 846.47   C 665.41 845.93 681.12 835.69 689.71 820.65   Q 689.66 821.21 690.01 821.52   Q 690.36 821.85 690.81 821.66   C 691.74 821.26 692.80 821.11 693.68 820.73   C 700.75 817.65 707.77 814.92 714.79 811.37   Q 718.83 809.32 722.99 807.43   C 726.48 827.88 755.90 823.56 754.69 804.14   C 754.24 796.88 750.08 794.23 744.60 790.21   Q 784.61 756.62 802.20 742.43   Q 807.35 738.28 817.46 731.91   Z"
       id="path115" />
    <path
       fill="#fdfefd"
       d="   M 551.23 734.48   L 637.37 799.24   Q 636.94 799.98 635.99 800.55   A 1.33 1.33 0.0 0 0 635.41 801.29   Q 631.85 812.99 620.25 812.99   Q 517.97 813.00 415.69 812.99   C 409.15 812.99 397.19 813.35 387.92 813.02   Q 381.59 812.79 378.38 811.10   Q 371.87 807.66 369.22 799.23   L 453.68 735.55   Q 454.06 737.45 455.33 738.44   Q 472.29 751.63 497.22 770.28   C 500.09 772.43 502.99 773.93 506.32 771.38   Q 527.66 755.06 549.04 738.80   Q 551.25 737.12 551.23 734.48   Z"
       id="path116" />
    <path
       fill="#ff5346"
       d="   M 286.90 805.06   C 283.75 816.35 274.20 822.24 263.03 818.22   Q 252.85 814.56 252.00 801.52   Q 251.51 794.20 256.76 788.83   Q 257.41 789.03 258.20 788.27   L 262.67 785.50   Q 273.14 781.73 280.33 788.40   Q 287.55 795.10 286.90 805.06   Z"
       id="path117" />
    <path
       fill="#0fc8ff"
       d="   M 262.67 785.50   L 258.20 788.27   Q 258.03 788.08 258.45 787.73   Q 260.75 785.80 262.67 785.50   Z"
       id="path118" />
    <path
       fill="#232241"
       d="   M 744.60 790.21   C 750.08 794.23 754.24 796.88 754.69 804.14   C 755.90 823.56 726.48 827.88 722.99 807.43   Q 722.45 795.53 733.20 790.67   Q 738.86 788.11 744.60 790.21   Z"
       id="path119" />
    <path
       fill="#fcc2b6"
       d="   M 637.37 799.24   L 663.82 818.73   A 0.52 0.52 0.0 0 1 663.85 819.55   Q 655.96 826.49 645.25 826.49   Q 504.52 826.50 363.79 826.51   C 354.50 826.51 348.58 825.43 342.10 819.65   A 0.48 0.47 -42.2 0 1 342.14 818.91   L 369.22 799.23   Q 371.87 807.66 378.38 811.10   Q 381.59 812.79 387.92 813.02   C 397.19 813.35 409.15 812.99 415.69 812.99   Q 517.97 813.00 620.25 812.99   Q 631.85 812.99 635.41 801.29   A 1.33 1.33 0.0 0 1 635.99 800.55   Q 636.94 799.98 637.37 799.24   Z"
       id="path120" />
  </g>
  <g
     id="g148">
    <path
       fill="#fdfefd"
       d="   M 507.8701 176.1841   A 7.98 7.78 49.9 0 1 496.7789 175.0913   A 7.98 7.78 49.9 0 1 497.5899 163.9759   A 7.98 7.78 49.9 0 1 508.6811 165.0687   A 7.98 7.78 49.9 0 1 507.8701 176.1841   Z"
       id="path121" />
    <path
       fill="#fdfefd"
       d="   M 612.3749 177.6431   A 8.10 7.76 50.2 0 1 601.2281 176.3873   A 8.10 7.76 50.2 0 1 602.0051 165.1969   A 8.10 7.76 50.2 0 1 613.1519 166.4527   A 8.10 7.76 50.2 0 1 612.3749 177.6431   Z"
       id="path122" />
    <path
       fill="#fdfefd"
       d="   M 398.7484 182.5310   A 7.10 6.82 66.7 0 1 389.6762 178.7076   A 7.10 6.82 66.7 0 1 393.1316 169.4890   A 7.10 6.82 66.7 0 1 402.2038 173.3124   A 7.10 6.82 66.7 0 1 398.7484 182.5310   Z"
       id="path123" />
    <path
       fill="#fdfefd"
       d="   M 736.3872 268.8154   A 7.49 7.20 72.3 0 1 727.2508 263.8690   A 7.49 7.20 72.3 0 1 731.8328 254.5446   A 7.49 7.20 72.3 0 1 740.9692 259.4910   A 7.49 7.20 72.3 0 1 736.3872 268.8154   Z"
       id="path124" />
    <path
       fill="#fdfefd"
       d="   M 283.7364 274.2722   A 1.99 1.83 21.9 0 1 281.2074 275.2279   A 1.99 1.83 21.9 0 1 280.0436 272.7878   A 1.99 1.83 21.9 0 1 282.5726 271.8321   A 1.99 1.83 21.9 0 1 283.7364 274.2722   Z"
       id="path125" />
    <path
       fill="#fdfefd"
       d="   M 246.0607 298.0892   A 18.12 17.75 14.9 0 1 223.9859 310.5832   A 18.12 17.75 14.9 0 1 211.0393 288.7708   A 18.12 17.75 14.9 0 1 233.1141 276.2768   A 18.12 17.75 14.9 0 1 246.0607 298.0892   Z"
       id="path126" />
    <path
       fill="#fdfefd"
       d="   M 797.1942 304.7933   A 18.07 17.66 21.4 0 1 773.9263 314.6424   A 18.07 17.66 21.4 0 1 763.5458 291.6067   A 18.07 17.66 21.4 0 1 786.8137 281.7576   A 18.07 17.66 21.4 0 1 797.1942 304.7933   Z"
       id="path127" />
    <path
       fill="#fdfefd"
       d="   M 520.0936 295.1751   A 3.39 3.08 126.5 0 1 519.6341 290.6179   A 3.39 3.08 126.5 0 1 524.1264 289.7249   A 3.39 3.08 126.5 0 1 524.5859 294.2821   A 3.39 3.08 126.5 0 1 520.0936 295.1751   Z"
       id="path128" />
    <path
       fill="#fdfefd"
       d="   M 508.55 312.44   A 4.39 4.39 0.0 0 1 504.16 316.83   A 4.39 4.39 0.0 0 1 499.77 312.44   A 4.39 4.39 0.0 0 1 504.16 308.05   A 4.39 4.39 0.0 0 1 508.55 312.44   Z"
       id="path129" />
    <path
       fill="#232241"
       d="   M 438.7432 363.9740   A 36.55 36.04 -14.2 0 1 412.1509 407.8788   A 36.55 36.04 -14.2 0 1 367.8768 381.9060   A 36.55 36.04 -14.2 0 1 394.4691 338.0012   A 36.55 36.04 -14.2 0 1 438.7432 363.9740   Z"
       id="path130" />
    <path
       fill="#232241"
       d="   M 637.4094 363.1743   A 36.20 36.06 -15.7 0 1 612.3179 407.6847   A 36.20 36.06 -15.7 0 1 567.7106 382.7657   A 36.20 36.06 -15.7 0 1 592.8021 338.2553   A 36.20 36.06 -15.7 0 1 637.4094 363.1743   Z"
       id="path131" />
    <path
       fill="#fdfefd"
       d="   M 757.6818 373.2508   A 6.71 6.35 53.6 0 1 748.5889 371.6182   A 6.71 6.35 53.6 0 1 749.7182 362.4492   A 6.71 6.35 53.6 0 1 758.8111 364.0818   A 6.71 6.35 53.6 0 1 757.6818 373.2508   Z"
       id="path132" />
    <path
       fill="#ff5346"
       d="   M 215.8803 396.7409   A 17.87 17.47 57.2 0 1 191.5153 391.1836   A 17.87 17.47 57.2 0 1 196.5197 366.6991   A 17.87 17.47 57.2 0 1 220.8847 372.2564   A 17.87 17.47 57.2 0 1 215.8803 396.7409   Z"
       id="path133" />
    <path
       fill="#fdfefd"
       d="   M 827.99 419.04   A 18.03 18.03 0.0 0 1 809.96 437.07   A 18.03 18.03 0.0 0 1 791.93 419.04   A 18.03 18.03 0.0 0 1 809.96 401.01   A 18.03 18.03 0.0 0 1 827.99 419.04   Z"
       id="path134" />
    <path
       fill="#fdfefd"
       d="   M 237.4826 426.9500   A 5.97 5.64 52.4 0 1 229.3715 425.6612   A 5.97 5.64 52.4 0 1 230.1974 417.4900   A 5.97 5.64 52.4 0 1 238.3085 418.7788   A 5.97 5.64 52.4 0 1 237.4826 426.9500   Z"
       id="path135" />
    <path
       fill="#ff5346"
       d="   M 858.7987 484.5023   A 9.08 8.86 57.2 0 1 846.4326 481.6695   A 9.08 8.86 57.2 0 1 848.9613 469.2377   A 9.08 8.86 57.2 0 1 861.3274 472.0705   A 9.08 8.86 57.2 0 1 858.7987 484.5023   Z"
       id="path136" />
    <path
       fill="#fdfefd"
       d="   M 215.2176 508.6827   A 7.80 7.32 74.4 0 1 206.0697 503.1385   A 7.80 7.32 74.4 0 1 211.0224 493.6573   A 7.80 7.32 74.4 0 1 220.1703 499.2015   A 7.80 7.32 74.4 0 1 215.2176 508.6827   Z"
       id="path137" />
    <path
       fill="#fe7e63"
       d="   M 513.55 521.09   Q 513.28 521.26 513.24 522.01   C 512.71 533.08 522.44 539.69 532.75 537.91   C 541.09 536.48 545.93 532.87 549.48 525.53   Q 551.82 520.69 552.42 526.03   C 552.76 529.06 557.36 532.85 560.68 534.85   Q 567.27 538.83 575.00 537.83   C 577.65 537.49 579.89 534.41 583.19 535.74   Q 603.11 543.82 622.75 535.18   Q 624.79 534.28 624.79 536.51   C 624.79 550.54 627.34 563.86 633.16 576.74   A 1.06 1.05 73.2 0 1 632.37 578.22   C 622.08 579.93 616.20 573.03 613.09 564.21   A 1.61 1.61 0.0 0 0 610.80 563.33   Q 603.08 567.54 595.00 564.31   C 593.11 563.55 591.21 561.90 589.00 561.00   A 1.24 1.24 0.0 0 0 587.39 562.63   C 588.36 564.95 589.00 567.26 590.35 569.46   Q 592.20 572.45 593.83 575.48   A 1.15 1.14 -19.7 0 1 593.04 577.14   Q 589.15 577.90 586.65 575.08   Q 581.08 568.80 578.38 560.87   Q 577.94 559.56 575.50 559.23   Q 572.63 558.83 570.18 558.49   A 1.09 1.08 -89.4 0 0 568.95 559.70   C 569.97 568.09 568.41 577.18 558.31 578.39   C 549.36 579.46 545.16 573.34 543.49 565.50   A 2.00 1.99 3.2 0 0 542.17 564.03   C 539.05 563.02 537.32 564.26 536.30 567.30   Q 533.03 577.07 523.46 578.38   C 513.67 579.73 509.88 572.83 506.36 565.29   Q 506.14 564.81 505.64 564.62   C 500.19 562.54 500.44 568.05 498.64 570.91   Q 491.83 581.70 478.97 577.07   C 474.60 575.50 471.19 569.74 469.99 565.39   A 1.69 1.68 88.3 0 0 468.71 564.18   Q 466.40 563.70 464.25 564.71   A 1.10 1.09 -9.3 0 0 463.62 565.58   C 462.05 578.51 445.44 584.86 439.32 571.06   C 437.80 567.62 437.67 562.98 437.64 559.04   A 0.71 0.71 0.0 0 0 436.80 558.35   C 434.19 558.82 429.69 558.83 428.54 561.76   C 426.68 566.52 420.00 578.63 413.50 577.14   A 1.26 1.25 -66.4 0 1 412.75 575.21   Q 416.54 569.60 419.25 563.39   A 1.87 1.84 53.0 0 0 419.38 562.41   Q 419.13 560.55 417.65 561.69   C 411.44 566.41 402.17 566.58 395.24 563.44   A 1.21 1.21 0.0 0 0 393.57 564.25   C 390.97 574.45 384.96 577.51 375.15 578.70   A 1.03 1.03 0.0 0 1 374.04 577.38   C 376.66 568.68 379.90 559.81 380.22 551.25   Q 380.51 543.74 380.31 535.66   A 1.34 1.33 12.0 0 1 382.22 534.42   C 386.50 536.47 391.24 538.73 395.82 539.46   C 405.97 541.10 415.34 538.74 424.72 535.15   A 1.95 1.95 0.0 0 1 426.54 535.38   C 428.85 537.03 431.40 538.12 434.34 538.07   Q 448.46 537.82 455.47 524.83   Q 455.85 524.12 456.24 524.82   C 460.52 532.45 468.30 538.41 477.23 538.25   C 486.19 538.10 494.41 531.14 492.89 521.62   A 1.11 1.11 0.0 0 0 491.13 520.91   C 480.54 528.89 472.30 525.37 465.87 515.34   A 0.88 0.87 -44.7 0 1 465.88 514.38   Q 467.18 512.50 469.23 511.19   Q 477.97 505.63 487.60 501.95   C 507.26 494.44 520.97 501.75 537.36 511.90   C 538.87 512.83 541.30 514.96 539.94 516.76   C 538.07 519.23 536.58 521.66 534.26 523.21   C 527.31 527.86 521.70 524.70 515.19 521.03   A 1.58 1.57 42.8 0 0 513.55 521.09   Z"
       id="path138" />
    <path
       fill="#ff5346"
       d="   M 185.06 543.86   A 15.50 15.50 0.0 0 1 169.56 559.36   A 15.50 15.50 0.0 0 1 154.06 543.86   A 15.50 15.50 0.0 0 1 169.56 528.36   A 15.50 15.50 0.0 0 1 185.06 543.86   Z"
       id="path139" />
    <path
       fill="#fdfefd"
       d="   M 354.26 664.45   C 358.36 663.58 363.09 667.69 366.04 670.17   C 383.38 684.81 401.53 698.24 419.16 712.49   A 0.66 0.66 0.0 0 1 419.06 713.58   Q 414.59 716.06 409.68 718.07   Q 380.06 730.21 350.38 741.88   Q 349.57 742.19 349.56 741.33   Q 348.98 706.78 349.20 671.88   C 349.23 667.72 350.05 665.33 354.26 664.45   Z"
       id="path140" />
    <path
       fill="#fdfefd"
       d="   M 656.43 741.01   A 0.74 0.73 -80.2 0 1 655.44 741.71   Q 624.40 730.22 593.49 717.52   C 590.87 716.45 588.38 715.05 586.00 713.71   Q 585.08 713.19 585.91 712.55   C 605.36 697.54 624.90 682.62 644.17 667.40   C 651.11 661.93 656.53 665.67 656.49 673.75   Q 656.33 707.06 656.43 741.01   Z"
       id="path141" />
    <path
       fill="#fdfefd"
       d="   M 697.0993 836.2596   A 2.64 2.38 81.3 0 1 694.3474 834.0100   A 2.64 2.38 81.3 0 1 696.3007 831.0404   A 2.64 2.38 81.3 0 1 699.0526 833.2900   A 2.64 2.38 81.3 0 1 697.0993 836.2596   Z"
       id="path142" />
    <path
       fill="#fdfefd"
       d="   M 307.0330 851.4875   A 3.43 3.17 85.1 0 1 303.5816 848.3408   A 3.43 3.17 85.1 0 1 306.4470 844.6525   A 3.43 3.17 85.1 0 1 309.8984 847.7992   A 3.43 3.17 85.1 0 1 307.0330 851.4875   Z"
       id="path143" />
    <path
       fill="#ff5346"
       d="   M 570.2892 892.9690   A 9.31 9.00 76.4 0 1 559.3524 886.0363   A 9.31 9.00 76.4 0 1 565.9108 874.8710   A 9.31 9.00 76.4 0 1 576.8476 881.8037   A 9.31 9.00 76.4 0 1 570.2892 892.9690   Z"
       id="path144" />
    <path
       fill="#fdfefd"
       d="   M 362.8046 882.6990   A 3.82 3.56 97.3 0 1 359.7589 878.4576   A 3.82 3.56 97.3 0 1 363.7754 875.1210   A 3.82 3.56 97.3 0 1 366.8211 879.3624   A 3.82 3.56 97.3 0 1 362.8046 882.6990   Z"
       id="path145" />
    <path
       fill="#fdfefd"
       d="   M 640.4893 883.6588   A 2.82 2.39 95.1 0 1 638.3595 880.6375   A 2.82 2.39 95.1 0 1 640.9907 878.0412   A 2.82 2.39 95.1 0 1 643.1205 881.0625   A 2.82 2.39 95.1 0 1 640.4893 883.6588   Z"
       id="path146" />
    <path
       fill="#fdfefd"
       d="   M 498.9684 888.7033   A 2.48 2.19 94.2 0 1 496.9659 886.0696   A 2.48 2.19 94.2 0 1 499.3316 883.7567   A 2.48 2.19 94.2 0 1 501.3341 886.3904   A 2.48 2.19 94.2 0 1 498.9684 888.7033   Z"
       id="path147" />
    <path
       fill="#fdfefd"
       d="   M 442.4279 895.8827   A 2.27 2.04 94.6 0 1 440.5766 893.4564   A 2.27 2.04 94.6 0 1 442.7921 891.3573   A 2.27 2.04 94.6 0 1 444.6434 893.7836   A 2.27 2.04 94.6 0 1 442.4279 895.8827   Z"
       id="path148" />
  </g>
  <g
     id="g150">
    <path
       fill="#fdfefd"
       d="   M 423.58 366.16   A 10.37 10.37 0.0 0 1 413.21 376.53   A 10.37 10.37 0.0 0 1 402.84 366.16   A 10.37 10.37 0.0 0 1 413.21 355.79   A 10.37 10.37 0.0 0 1 423.58 366.16   Z"
       id="path149" />
    <path
       fill="#fdfefd"
       d="   M 621.72 366.17   A 10.28 10.28 0.0 0 1 611.44 376.45   A 10.28 10.28 0.0 0 1 601.16 366.17   A 10.28 10.28 0.0 0 1 611.44 355.89   A 10.28 10.28 0.0 0 1 621.72 366.17   Z"
       id="path150" />
  </g>
</svg>
